<svg width="120" height="98" viewBox="0 0 120 98" fill="none" xmlns="http://www.w3.org/2000/svg">
<path d="M31.3295 77.4516L35.4766 22.0201L85.5553 46.1443L31.3295 77.4516Z" stroke="white" stroke-width="3"/>
<path d="M46.1136 52V34.5455H48.125V40.9886H48.2955C48.4432 40.7614 48.6477 40.4716 48.9091 40.1193C49.1761 39.7614 49.5568 39.4432 50.0511 39.1648C50.5511 38.8807 51.2273 38.7386 52.0795 38.7386C53.1818 38.7386 54.1534 39.0142 54.9943 39.5653C55.8352 40.1165 56.4915 40.8977 56.9631 41.9091C57.4347 42.9205 57.6705 44.1136 57.6705 45.4886C57.6705 46.875 57.4347 48.0767 56.9631 49.0938C56.4915 50.1051 55.8381 50.8892 55.0028 51.446C54.1676 51.9972 53.2045 52.2727 52.1136 52.2727C51.2727 52.2727 50.5994 52.1335 50.0938 51.8551C49.5881 51.571 49.1989 51.25 48.9261 50.892C48.6534 50.5284 48.4432 50.2273 48.2955 49.9886H48.0568V52H46.1136ZM48.0909 45.4545C48.0909 46.4432 48.2358 47.3153 48.5256 48.071C48.8153 48.821 49.2386 49.4091 49.7955 49.8352C50.3523 50.2557 51.0341 50.4659 51.8409 50.4659C52.6818 50.4659 53.3835 50.2443 53.946 49.8011C54.5142 49.3523 54.9403 48.75 55.2244 47.9943C55.5142 47.233 55.6591 46.3864 55.6591 45.4545C55.6591 44.5341 55.517 43.7045 55.233 42.9659C54.9545 42.2216 54.5313 41.6335 53.9631 41.2017C53.4006 40.7642 52.6932 40.5455 51.8409 40.5455C51.0227 40.5455 50.3352 40.7528 49.7784 41.1676C49.2216 41.5767 48.8011 42.1506 48.517 42.8892C48.233 43.6222 48.0909 44.4773 48.0909 45.4545ZM68.9972 46.6477V38.9091H71.0085V52H68.9972V49.7841H68.8608C68.554 50.4489 68.0767 51.0142 67.429 51.4801C66.7813 51.9403 65.9631 52.1705 64.9744 52.1705C64.1562 52.1705 63.429 51.9915 62.7926 51.6335C62.1563 51.2699 61.6563 50.7244 61.2926 49.9972C60.929 49.2642 60.7472 48.3409 60.7472 47.2273V38.9091H62.7585V47.0909C62.7585 48.0455 63.0256 48.8068 63.5597 49.375C64.0994 49.9432 64.7869 50.2273 65.6222 50.2273C66.1222 50.2273 66.6307 50.0994 67.1477 49.8438C67.6705 49.5881 68.108 49.196 68.4602 48.6676C68.8182 48.1392 68.9972 47.4659 68.9972 46.6477ZM79.9766 57.1818C79.005 57.1818 78.1697 57.0568 77.4709 56.8068C76.772 56.5625 76.1896 56.2386 75.7237 55.8352C75.2635 55.4375 74.897 55.0114 74.6243 54.5568L76.2266 53.4318C76.4084 53.6705 76.6385 53.9432 76.9169 54.25C77.1953 54.5625 77.576 54.8324 78.0589 55.0597C78.5476 55.2926 79.1868 55.4091 79.9766 55.4091C81.0334 55.4091 81.9055 55.1534 82.593 54.642C83.2805 54.1307 83.6243 53.3295 83.6243 52.2386V49.5795H83.4538C83.3061 49.8182 83.0959 50.1136 82.8232 50.4659C82.5561 50.8125 82.1697 51.1222 81.6641 51.3949C81.1641 51.6619 80.4879 51.7955 79.6357 51.7955C78.5788 51.7955 77.63 51.5455 76.7891 51.0455C75.9538 50.5455 75.2919 49.8182 74.8033 48.8636C74.3203 47.9091 74.0788 46.75 74.0788 45.3864C74.0788 44.0455 74.3146 42.8778 74.7862 41.8835C75.2578 40.8835 75.9141 40.1108 76.755 39.5653C77.5959 39.0142 78.5675 38.7386 79.6697 38.7386C80.522 38.7386 81.1982 38.8807 81.6982 39.1648C82.2038 39.4432 82.5902 39.7614 82.8572 40.1193C83.13 40.4716 83.3402 40.7614 83.4879 40.9886H83.6925V38.9091H85.6357V52.375C85.6357 53.5 85.38 54.4148 84.8686 55.1193C84.3629 55.8295 83.6811 56.3494 82.8232 56.679C81.9709 57.0142 81.022 57.1818 79.9766 57.1818ZM79.9084 49.9886C80.7152 49.9886 81.397 49.804 81.9538 49.4347C82.5107 49.0653 82.9339 48.5341 83.2237 47.8409C83.5135 47.1477 83.6584 46.3182 83.6584 45.3523C83.6584 44.4091 83.5163 43.5767 83.2322 42.8551C82.9482 42.1335 82.5277 41.5682 81.9709 41.1591C81.4141 40.75 80.7266 40.5455 79.9084 40.5455C79.0561 40.5455 78.3459 40.7614 77.7777 41.1932C77.2152 41.625 76.7919 42.2045 76.5078 42.9318C76.2294 43.6591 76.0902 44.4659 76.0902 45.3523C76.0902 46.2614 76.2322 47.0653 76.5163 47.7642C76.8061 48.4574 77.2322 49.0028 77.7947 49.4006C78.3629 49.7926 79.0675 49.9886 79.9084 49.9886ZM89.3175 52V38.9091H91.3288V52H89.3175ZM90.3402 36.7273C89.9482 36.7273 89.6101 36.5938 89.326 36.3267C89.0476 36.0597 88.9084 35.7386 88.9084 35.3636C88.9084 34.9886 89.0476 34.6676 89.326 34.4006C89.6101 34.1335 89.9482 34 90.3402 34C90.7322 34 91.0675 34.1335 91.3459 34.4006C91.63 34.6676 91.772 34.9886 91.772 35.3636C91.772 35.7386 91.63 36.0597 91.3459 36.3267C91.0675 36.5938 90.7322 36.7273 90.3402 36.7273ZM103.263 46.6477V38.9091H105.274V52H103.263V49.7841H103.126C102.82 50.4489 102.342 51.0142 101.695 51.4801C101.047 51.9403 100.229 52.1705 99.2401 52.1705C98.4219 52.1705 97.6946 51.9915 97.0582 51.6335C96.4219 51.2699 95.9219 50.7244 95.5582 49.9972C95.1946 49.2642 95.0128 48.3409 95.0128 47.2273V38.9091H97.0241V47.0909C97.0241 48.0455 97.2912 48.8068 97.8253 49.375C98.3651 49.9432 99.0526 50.2273 99.8878 50.2273C100.388 50.2273 100.896 50.0994 101.413 49.8438C101.936 49.5881 102.374 49.196 102.726 48.6676C103.084 48.1392 103.263 47.4659 103.263 46.6477ZM118.231 41.8409L116.424 42.3523C116.31 42.0511 116.143 41.7585 115.921 41.4744C115.705 41.1847 115.41 40.946 115.035 40.7585C114.66 40.571 114.18 40.4773 113.594 40.4773C112.793 40.4773 112.126 40.6619 111.592 41.0312C111.063 41.3949 110.799 41.858 110.799 42.4205C110.799 42.9205 110.981 43.3153 111.344 43.6051C111.708 43.8949 112.276 44.1364 113.049 44.3295L114.992 44.8068C116.163 45.0909 117.035 45.5256 117.609 46.1108C118.183 46.6903 118.469 47.4375 118.469 48.3523C118.469 49.1023 118.254 49.7727 117.822 50.3636C117.396 50.9545 116.799 51.4205 116.032 51.7614C115.265 52.1023 114.373 52.2727 113.356 52.2727C112.021 52.2727 110.915 51.983 110.04 51.4034C109.165 50.8239 108.612 49.9773 108.379 48.8636L110.288 48.3864C110.469 49.0909 110.813 49.6193 111.319 49.9716C111.83 50.3239 112.498 50.5 113.322 50.5C114.259 50.5 115.004 50.3011 115.555 49.9034C116.112 49.5 116.39 49.017 116.39 48.4545C116.39 48 116.231 47.6193 115.913 47.3125C115.594 47 115.106 46.767 114.447 46.6136L112.265 46.1023C111.066 45.8182 110.185 45.3778 109.623 44.7812C109.066 44.179 108.788 43.4261 108.788 42.5227C108.788 41.7841 108.995 41.1307 109.41 40.5625C109.83 39.9943 110.401 39.5483 111.123 39.2244C111.85 38.9006 112.674 38.7386 113.594 38.7386C114.89 38.7386 115.907 39.0227 116.646 39.5909C117.39 40.1591 117.918 40.9091 118.231 41.8409Z" fill="#0A0A0A"/>
</svg>
